<svg version="1.1" id="Layer_1" xmlns="http://www.w3.org/2000/svg" xmlns:xlink="http://www.w3.org/1999/xlink" x="0px" y="0px"
	 width="100%" viewBox="0 0 559 421" enable-background="new 0 0 559 421" xml:space="preserve">
<path fill="#FEFFFF" opacity="1.000000" stroke="none" 
	d="
M353.000000,422.000000 
	C235.333359,422.000000 118.166725,422.000000 1.000063,422.000000 
	C1.000042,281.666718 1.000042,141.333450 1.000021,1.000138 
	C187.333237,1.000092 373.666473,1.000092 559.999756,1.000046 
	C559.999878,141.333191 559.999878,281.666382 559.999939,421.999786 
	C491.166656,422.000000 422.333344,422.000000 353.000000,422.000000 
M252.743530,218.119080 
	C252.743530,218.119080 252.768066,218.098740 253.463791,218.844223 
	C253.954971,219.313980 254.446136,219.783737 254.843597,220.139114 
	C254.843597,220.139114 254.841766,220.123016 255.312561,220.660995 
	C255.517410,220.782761 255.722244,220.904526 256.112488,221.513672 
	C256.402435,221.693024 256.692352,221.872375 257.226654,222.612350 
	C258.133270,223.413940 259.039917,224.215515 260.028717,225.481491 
	C260.380585,225.735809 260.732452,225.990143 261.506317,226.929733 
	C261.924713,227.259674 262.343109,227.589615 262.820526,228.390579 
	C263.196075,228.644669 263.571655,228.898743 264.250641,229.707687 
	C264.727051,230.112213 265.203491,230.516724 265.790344,231.386734 
	C266.171173,231.652267 266.552002,231.917801 267.102570,232.599579 
	C267.297180,232.847290 267.549591,232.998688 268.028778,233.582245 
	C268.330750,233.779800 268.632751,233.977371 269.248657,234.778244 
	C270.407562,235.885696 271.566467,236.993149 272.605988,238.332809 
	C272.605988,238.332809 272.790649,238.518158 272.790649,238.518158 
	C272.790649,238.518158 273.044678,238.452957 273.191925,238.743713 
	C273.191925,238.743713 273.504791,238.835114 273.702087,239.372681 
	C274.421753,239.971924 275.141388,240.571167 275.974884,241.052231 
	C275.974884,241.052231 275.831970,241.132843 276.103210,241.837204 
	C277.187500,242.512085 278.273010,243.774048 279.355835,243.771759 
	C291.278381,243.746521 303.200500,243.524628 315.723755,243.227310 
	C316.140015,242.794388 316.556244,242.361481 317.535828,241.767990 
	C317.983032,241.163818 318.430237,240.559647 319.466064,239.637192 
	C334.507263,224.960007 349.548492,210.282822 365.261658,194.949966 
	C365.261658,211.463852 365.261658,227.452988 365.261658,243.467682 
	C374.119293,243.467682 382.180756,243.467682 390.348022,243.467682 
	C390.348022,214.862198 390.348022,186.613251 390.348022,157.949921 
	C383.076324,157.949921 376.090607,157.660080 369.150574,158.096664 
	C366.481262,158.264587 363.253662,159.419861 361.404907,161.256912 
	C341.202637,181.331146 321.135193,201.543884 301.265503,221.947266 
	C297.737183,225.570328 295.838562,225.622421 292.265198,221.939621 
	C272.558014,201.628830 252.559814,181.600464 232.665939,161.470779 
	C230.557449,159.337296 228.586975,156.920227 224.094849,158.066071 
	C215.725037,158.114380 207.355225,158.162674 198.252991,158.000824 
	C196.959869,158.069595 195.666763,158.138351 193.353897,158.261337 
	C194.897385,159.456345 195.509537,159.930298 196.150345,160.460403 
	C196.150345,160.460403 196.201279,160.497574 196.565216,161.091171 
	C211.404007,176.053772 226.242798,191.016373 241.131882,206.404175 
	C241.446075,206.590118 241.760254,206.776077 242.500839,207.557556 
	C242.702484,207.695190 242.904144,207.832825 243.225449,208.440048 
	C243.410934,208.739197 243.679321,208.899872 244.014618,208.991623 
	C244.014618,208.991623 244.082809,208.970566 244.155075,209.402435 
	C244.465530,209.619614 244.776001,209.836792 245.435623,210.663849 
	C246.296783,211.440659 247.157928,212.217468 248.177475,213.466171 
	C248.380905,213.753784 248.656540,213.925461 249.353271,214.656937 
	C249.876221,215.209579 250.399170,215.762222 250.856979,216.181580 
	C250.856979,216.181580 250.922028,216.151199 251.364258,216.707901 
	C251.548569,216.856888 251.732895,217.005875 251.787170,217.121582 
	C251.787170,217.121582 251.866470,217.095200 252.329880,217.662766 
	C252.519180,217.817123 252.708466,217.971466 252.743530,218.119080 
M256.034729,235.938980 
	C256.034729,235.938980 256.218018,235.813385 256.047791,235.187698 
	C255.087463,234.342041 254.127151,233.496384 252.915466,232.050964 
	C247.214966,226.279572 241.546402,220.476212 235.807404,214.743362 
	C223.533768,202.482895 211.223709,190.258881 198.708496,177.398590 
	C196.141968,174.926163 193.575439,172.453720 190.999390,170.000610 
	C190.999390,170.000610 191.018692,169.991074 190.794327,169.363098 
	C187.773987,166.277527 184.842773,163.096130 181.685028,160.158264 
	C180.576523,159.126938 178.926727,158.119339 177.498718,158.082397 
	C169.724884,157.881393 161.943130,157.986847 153.946426,157.986847 
	C153.946426,186.618164 153.946426,214.938889 153.946426,243.313690 
	C162.068573,243.313690 169.975311,243.313690 178.540222,243.283173 
	C178.719391,242.021072 179.049683,240.759552 179.054459,239.496796 
	C179.105103,226.108032 179.076660,212.718887 179.151505,199.330322 
	C179.160934,197.644150 178.206116,194.731094 182.099594,196.514877 
	C182.383713,196.683594 182.667847,196.852295 183.122238,197.632416 
	C184.065048,198.445953 185.007858,199.259491 185.991486,200.000900 
	C185.991486,200.000900 185.925842,200.051575 186.140915,200.683731 
	C188.722275,203.171707 191.303635,205.659683 193.972916,208.032120 
	C193.972916,208.032120 193.852722,208.113602 194.067719,208.748474 
	C198.652542,213.235687 203.237366,217.722900 207.955826,222.044037 
	C207.955826,222.044037 207.790939,222.179108 207.983002,222.783752 
	C208.937164,223.585861 209.891342,224.387985 210.945343,225.029861 
	C210.945343,225.029861 210.809982,225.161469 211.021988,225.782349 
	C212.614822,227.263504 214.207672,228.744644 215.970612,230.054489 
	C215.970612,230.054489 215.774750,230.195587 215.941193,230.808609 
	C216.895752,231.613770 217.850311,232.418945 218.959579,233.041595 
	C218.959579,233.041595 218.776642,233.195801 218.971222,233.842316 
	C220.873367,235.669189 222.775528,237.496078 225.000000,239.000610 
	C225.000000,239.000610 224.678802,239.324173 224.856125,239.888565 
	C225.458282,240.369888 226.060425,240.851227 227.002151,241.010971 
	C227.002151,241.010971 226.667587,241.338593 226.938461,242.037003 
	C228.724167,242.647720 230.501724,243.757553 232.296906,243.786819 
	C242.654114,243.955658 253.015472,243.869156 263.375427,243.869156 
	C263.513367,243.493225 263.651276,243.117294 263.789185,242.741364 
	C262.234009,241.407242 260.678802,240.073135 259.002045,238.314514 
	C258.831665,238.044250 258.587219,237.896713 258.085358,237.277908 
	C257.453461,236.778503 256.821533,236.279099 256.034729,235.938980 
M100.229721,329.997894 
	C101.031944,328.919739 102.450600,327.882904 102.526138,326.756042 
	C102.803932,322.612366 102.636101,318.438843 102.636086,314.276550 
	C102.636047,302.662567 102.636078,291.048615 102.636078,278.996613 
	C97.869698,278.996613 93.559540,278.759552 89.306129,279.146423 
	C88.088730,279.257111 86.427933,280.978729 86.004959,282.294281 
	C83.077263,291.400330 80.422951,300.594299 77.315712,310.980469 
	C73.870514,299.679138 70.758934,289.472168 67.642723,279.250000 
	C62.458542,279.250000 57.367878,279.250000 52.208221,279.250000 
	C52.208221,296.223419 52.208221,312.943665 52.208221,329.753052 
	C55.219254,329.753052 57.956734,329.753052 61.126244,329.753052 
	C61.126244,315.887360 61.126244,302.268463 61.126244,288.649597 
	C61.443195,288.602356 61.760143,288.555145 62.077095,288.507935 
	C65.859642,302.269012 69.642181,316.030121 73.360703,329.558289 
	C78.150284,331.218414 79.845825,329.071228 80.851868,325.018127 
	C83.440239,314.590271 86.325104,304.235779 89.123177,293.860504 
	C89.535065,292.333191 90.119514,290.852448 90.624123,289.350159 
	C91.031830,289.448883 91.439537,289.547638 91.847244,289.646393 
	C91.847244,303.024292 91.847244,316.402222 91.847244,330.001862 
	C94.672203,330.001862 96.991951,330.001862 100.229721,329.997894 
M304.835907,204.340317 
	C319.870117,189.153809 334.904358,173.967285 350.748535,157.962631 
	C338.606812,157.962631 327.684021,157.937881 316.761871,158.008942 
	C315.873566,158.014709 314.757904,158.444504 314.137787,159.066162 
	C302.432129,170.800964 290.785309,182.594452 279.262054,194.238449 
	C285.316101,200.361755 291.011597,206.122391 297.587219,212.773224 
	C299.822418,210.140854 302.075378,207.487579 304.835907,204.340317 
M256.038818,311.316772 
	C259.115875,316.684662 256.938599,321.324524 250.920288,321.952850 
	C244.682785,322.604034 239.351471,321.226837 236.986511,314.377228 
	C233.386703,315.418762 230.233887,316.330963 226.974152,317.274078 
	C228.779663,323.539795 232.610596,327.890320 238.704239,329.125305 
	C243.771057,330.152191 249.215210,330.643036 254.301758,329.957703 
	C263.555389,328.710846 268.841278,322.591187 269.010834,314.519501 
	C269.171265,306.881683 264.917908,302.323975 255.480667,299.924652 
	C251.635498,298.947052 247.625031,298.275696 244.076553,296.630646 
	C242.474426,295.887939 240.918823,293.057953 241.014374,291.264038 
	C241.091873,289.809326 243.503250,287.595764 245.170242,287.286621 
	C249.039673,286.569000 253.137344,286.377319 256.138550,290.120148 
	C256.736847,290.866272 258.309753,291.256744 259.354126,291.134552 
	C261.871704,290.840118 264.342407,290.145172 266.877899,289.601898 
	C263.146057,280.272095 253.810989,276.333710 242.152740,278.858643 
	C234.651428,280.483276 230.012192,285.326324 229.797348,291.756897 
	C229.518082,300.115906 232.783813,304.590607 241.067795,306.992340 
	C245.818207,308.369659 250.612152,309.596710 256.038818,311.316772 
M398.207367,310.559692 
	C397.828400,311.636902 397.449402,312.714081 396.675934,314.912567 
	C394.590393,306.393768 392.830536,299.205200 391.121277,292.223297 
	C381.730865,291.736298 381.770020,291.744720 379.961365,300.162384 
	C378.953888,304.851074 377.790375,309.506287 376.697174,314.176575 
	C376.420074,314.172119 376.142975,314.167633 375.865875,314.163177 
	C373.881714,306.842957 371.897552,299.522705 369.940460,292.302460 
	C366.341614,292.302460 363.112213,292.302460 359.404907,292.302460 
	C363.320007,305.075348 367.106018,317.427094 370.868103,329.700806 
	C374.145569,329.700806 377.056244,329.700806 380.081268,329.700806 
	C381.893646,321.998474 383.642670,314.565338 385.391693,307.132233 
	C385.800293,307.163055 386.208893,307.193848 386.617462,307.224670 
	C388.422394,314.731140 390.227325,322.237579 392.048737,329.812561 
	C395.160645,329.812561 397.949738,329.812561 400.946960,329.812561 
	C404.591034,317.273224 408.198242,304.860840 411.886505,292.169525 
	C408.835510,292.169525 406.201843,292.169525 403.089783,292.169525 
	C401.579285,298.021545 400.055176,303.926178 398.207367,310.559692 
M204.641434,313.518097 
	C204.476257,309.206177 204.448532,304.883392 204.109421,300.585175 
	C203.727737,295.747711 201.144333,292.113434 196.244095,291.805237 
	C191.807495,291.526154 187.284973,292.612915 182.335236,293.147736 
	C182.335236,289.350433 182.335236,284.309448 182.335236,279.176941 
	C178.665131,279.176941 175.560562,279.176941 172.336823,279.176941 
	C172.336823,296.204834 172.336823,313.042267 172.336823,329.742249 
	C175.781738,329.742249 178.868652,329.742249 182.223389,329.742249 
	C182.223389,322.161041 182.001480,314.846130 182.294785,307.551880 
	C182.522476,301.889404 185.757370,298.553314 189.985748,299.059723 
	C195.468384,299.716370 194.254608,304.120026 194.317276,307.556488 
	C194.452438,314.968140 194.358810,322.384003 194.358810,329.705414 
	C198.133240,329.705414 201.214294,329.705414 204.641373,329.705414 
	C204.641373,324.439606 204.641373,319.474487 204.641434,313.518097 
M427.238037,330.978851 
	C430.888702,329.141998 434.539368,327.305115 437.948639,325.589722 
	C438.174408,326.317596 438.741394,328.145538 439.233582,329.732361 
	C442.433258,329.732361 445.203217,329.732361 447.187225,329.732361 
	C447.187225,321.334137 446.854034,313.202118 447.271881,305.108887 
	C447.789429,295.084991 443.354950,292.162994 434.931976,291.202637 
	C425.552094,290.133209 415.155457,293.118439 414.137360,302.685974 
	C416.867279,303.036591 419.605377,303.388245 422.296509,303.733856 
	C425.224121,299.324066 429.865509,297.393372 434.208008,299.416077 
	C435.785736,300.150970 436.586792,302.553345 437.742218,304.194885 
	C436.396027,304.793304 435.101349,305.678528 433.693146,305.931488 
	C430.593384,306.488373 427.381134,306.472412 424.312500,307.139587 
	C413.513428,309.487518 408.933563,319.560089 415.855682,326.417786 
	C418.392639,328.931122 422.833344,329.522888 427.238037,330.978851 
M508.410400,312.007233 
	C510.207825,312.007233 512.005249,312.007233 513.753418,312.007233 
	C514.946899,300.601410 510.105103,293.353485 500.267670,291.326324 
	C490.945831,289.405426 481.917603,294.673157 479.527710,304.083618 
	C478.571503,307.848877 478.653961,312.041840 479.064606,315.956116 
	C479.916199,324.073639 486.829895,330.232605 495.236816,330.990845 
	C503.576172,331.742981 510.857880,326.715240 513.376343,318.248840 
	C510.504547,317.592529 507.649933,316.940094 504.851562,316.300568 
	C501.333435,322.545593 498.693054,324.159088 494.472229,322.760254 
	C490.656677,321.495728 488.859039,317.704681 489.528046,312.007111 
	C495.473511,312.007111 501.453064,312.007111 508.410400,312.007233 
M276.274750,297.866425 
	C270.822021,305.828796 271.142670,314.121155 275.374115,322.326355 
	C279.015442,329.387268 286.217865,332.297302 293.900269,330.398346 
	C303.664978,327.984650 308.372223,321.090759 308.189178,309.471832 
	C308.063141,301.470154 303.961090,294.862091 297.559692,292.348633 
	C290.078461,289.411194 282.492432,291.218018 276.274750,297.866425 
M140.851929,292.403625 
	C137.945862,292.254883 135.039780,292.106110 131.809662,291.940765 
	C131.809662,298.684753 131.809662,304.812042 131.809662,310.939331 
	C131.809662,317.194794 131.809662,323.450287 131.809662,329.755981 
	C135.473709,329.755981 138.550110,329.755981 141.990524,329.755981 
	C141.990524,322.564026 141.966415,315.611481 141.997864,308.659180 
	C142.024887,302.687866 144.842422,298.641144 148.964813,299.063965 
	C154.822815,299.664856 153.902298,304.323395 153.935837,308.220520 
	C153.998123,315.455750 153.953690,322.691895 153.953690,329.634705 
	C157.802307,329.634705 160.871674,329.634705 164.000885,329.634705 
	C164.000885,320.787201 164.118988,312.304382 163.966064,303.826477 
	C163.826462,296.087708 158.820755,290.490295 151.727676,291.221527 
	C147.967850,291.609161 144.454071,294.383545 141.022034,295.990234 
	C141.022034,295.841705 141.022034,294.538544 140.851929,292.403625 
M325.525940,287.842651 
	C327.977570,286.928650 330.429169,286.014679 332.855652,285.110077 
	C332.855652,282.936768 332.855652,280.545441 332.855652,277.098389 
	C328.013245,278.238190 322.925812,278.149597 319.731781,280.564911 
	C316.793640,282.786774 315.892700,287.702606 313.882843,291.870117 
	C313.165619,291.965027 311.595612,292.172729 310.128845,292.366791 
	C310.128845,295.005249 310.128845,297.285217 310.128845,299.835083 
	C311.874451,299.954285 313.448242,300.061737 315.447327,300.198242 
	C315.447327,310.236877 315.447327,319.976471 315.447327,329.857971 
	C318.857788,329.857971 321.816498,329.857971 325.099182,329.857971 
	C325.099182,319.959564 325.099182,310.194031 325.099182,300.091736 
	C327.880859,300.091736 330.341431,300.091736 332.854950,300.091736 
	C332.854950,297.205688 332.854950,294.674255 332.854950,292.878998 
	C330.499786,290.138397 325.101349,295.386749 325.525940,287.842651 
M357.626465,293.804993 
	C355.292267,292.918640 352.958069,292.032288 349.952393,290.890961 
	C349.952393,288.232819 349.952393,284.869080 349.952393,281.314270 
	C346.864288,282.044220 344.307526,282.648560 341.621643,283.283447 
	C341.284546,286.251129 340.970337,289.017487 340.653290,291.808868 
	C339.002991,291.946411 337.546234,292.067871 335.977936,292.198578 
	C335.977936,294.809753 335.977936,297.268951 335.977936,299.692139 
	C337.552704,299.989502 338.937347,300.250946 340.695221,300.582886 
	C340.695221,307.835876 340.299255,314.840668 340.811554,321.778381 
	C341.282196,328.151825 346.821625,331.861084 353.152924,330.832062 
	C354.773071,330.568756 356.354065,330.064392 357.914856,329.680145 
	C357.914856,327.355469 357.914856,325.120850 357.914856,322.761627 
	C353.918640,323.288330 350.259766,323.402100 350.128998,318.271179 
	C349.977417,312.324219 350.093689,306.370422 350.093689,300.222839 
	C352.701172,300.065521 354.950378,299.929840 357.637512,299.767700 
	C357.637512,297.923462 357.637512,296.301697 357.626465,293.804993 
M112.002167,283.655701 
	C112.002167,299.044250 112.002167,314.432800 112.002167,329.730896 
	C116.040596,329.730896 119.306084,329.730896 122.685417,329.730896 
	C122.685417,312.764923 122.685417,296.071716 122.685417,279.006470 
	C120.076210,279.006470 117.760406,279.188538 115.485466,278.961395 
	C112.490761,278.662384 111.615555,280.008820 112.002167,283.655701 
M466.053711,319.517334 
	C466.053772,317.352264 466.049622,315.187164 466.054626,313.022095 
	C466.074127,304.597198 468.270691,301.931152 476.394531,300.603943 
	C476.394531,297.522247 476.394531,294.423828 476.394531,289.704987 
	C472.087982,291.902252 468.629272,293.666962 465.152466,295.440857 
	C465.085999,294.836090 464.937927,293.489471 464.806274,292.292114 
	C461.706238,292.292114 458.953949,292.292114 456.243347,292.292114 
	C456.243347,304.985199 456.243347,317.380310 456.243347,329.706299 
	C459.642578,329.706299 462.720612,329.706299 466.053711,329.706299 
	C466.053711,326.442902 466.053711,323.469025 466.053711,319.517334 
z"/>
<path fill="#3971BF" opacity="1.000000" stroke="none" 
	d="
M316.972473,241.928574 
	C316.556244,242.361481 316.140015,242.794388 315.153931,242.946594 
	C310.842468,242.457794 307.102966,242.191360 303.358704,242.053268 
	C294.184296,241.714920 285.007690,241.435791 275.831970,241.132843 
	C275.831970,241.132843 275.974884,241.052231 275.931946,240.785675 
	C275.094269,239.957794 274.299530,239.396454 273.504791,238.835114 
	C273.504791,238.835114 273.191925,238.743713 273.073303,238.532074 
	C272.954651,238.320435 272.725372,238.100601 272.725372,238.100601 
	C271.566467,236.993149 270.407562,235.885696 269.008575,234.210739 
	C268.465576,233.446732 268.162689,233.250244 267.859772,233.053757 
	C267.549591,232.998688 267.297180,232.847290 266.968140,232.152344 
	C266.449127,231.443817 266.064514,231.182526 265.679901,230.921234 
	C265.203491,230.516724 264.727051,230.112213 264.047119,229.204315 
	C263.482880,228.440491 263.122162,228.180023 262.761475,227.919556 
	C262.343109,227.589615 261.924713,227.259674 261.230408,226.374817 
	C260.618500,225.552307 260.282532,225.284698 259.946533,225.017090 
	C259.039917,224.215515 258.133270,223.413940 257.009644,222.088837 
	C256.504120,221.385635 256.215607,221.205948 255.927078,221.026276 
	C255.722244,220.904526 255.517410,220.782761 255.081360,220.421448 
	C254.850174,220.181885 254.937302,220.253494 254.937302,220.253494 
	C254.446136,219.783737 253.954971,219.313980 253.124496,218.502182 
	C252.785202,218.160141 252.897736,218.125793 252.897736,218.125793 
	C252.708466,217.971466 252.519180,217.817123 252.100143,217.406326 
	C251.870407,217.149887 251.917206,217.154846 251.917206,217.154846 
	C251.732895,217.005875 251.548569,216.856888 251.132935,216.460587 
	C250.901627,216.213272 250.922119,216.314865 250.922119,216.314865 
	C250.399170,215.762222 249.876221,215.209579 249.085907,214.092300 
	C248.623215,213.243256 248.356720,213.065460 248.019073,212.994293 
	C247.157928,212.217468 246.296783,211.440659 245.195892,210.177643 
	C244.665039,209.451141 244.373917,209.210861 244.082794,208.970581 
	C244.082809,208.970566 244.014618,208.991623 243.928558,208.746216 
	C243.661148,208.234863 243.415573,208.058075 243.105804,207.970459 
	C242.904144,207.832825 242.702484,207.695190 242.218109,207.091446 
	C241.650803,206.409882 241.366211,206.194412 241.081604,205.978943 
	C226.242798,191.016373 211.404007,176.053772 196.903839,160.670593 
	C207.463058,160.250031 217.683640,160.250031 227.904221,160.250031 
	C227.913895,160.013321 227.923553,159.776611 227.933228,159.539902 
	C226.963989,159.098923 225.994736,158.657928 225.025497,158.216934 
	C228.586975,156.920227 230.557449,159.337296 232.665939,161.470779 
	C252.559814,181.600464 272.558014,201.628830 292.265198,221.939621 
	C295.838562,225.622421 297.737183,225.570328 301.265503,221.947266 
	C321.135193,201.543884 341.202637,181.331146 361.404907,161.256912 
	C363.253662,159.419861 366.481262,158.264587 369.150574,158.096664 
	C376.090607,157.660080 383.076324,157.949921 390.348022,157.949921 
	C390.348022,186.613251 390.348022,214.862198 390.348022,243.467682 
	C382.180756,243.467682 374.119293,243.467682 365.261658,243.467682 
	C365.261658,227.452988 365.261658,211.463852 365.261658,194.949966 
	C349.548492,210.282822 334.507263,224.960007 318.865906,239.844666 
	C317.834656,240.677612 317.403564,241.303101 316.972473,241.928574 
z"/>
<path fill="#373737" opacity="1.000000" stroke="none" 
	d="
M258.268707,237.871872 
	C258.587219,237.896713 258.831665,238.044250 259.023438,238.964493 
	C257.580292,240.438232 256.114075,241.973419 254.651428,241.970001 
	C245.323044,241.948227 235.995438,241.587631 226.667587,241.338593 
	C226.667587,241.338593 227.002151,241.010971 226.887985,240.810959 
	C226.075470,240.182022 225.377136,239.753098 224.678802,239.324188 
	C224.678802,239.324173 225.000000,239.000610 224.896622,238.791824 
	C222.787704,236.787292 220.782181,234.991547 218.776642,233.195801 
	C218.776642,233.195801 218.959579,233.041595 218.918793,232.740906 
	C217.843567,231.692017 216.809158,230.943802 215.774750,230.195587 
	C215.774750,230.195587 215.970612,230.054489 215.906372,229.771866 
	C214.164749,228.046661 212.487366,226.604065 210.809982,225.161469 
	C210.809982,225.161469 210.945343,225.029861 210.894531,224.750427 
	C209.826141,223.707031 208.808533,222.943069 207.790939,222.179108 
	C207.790939,222.179108 207.955826,222.044037 207.901611,221.759583 
	C203.182510,217.021271 198.517609,212.567444 193.852722,208.113617 
	C193.852722,208.113602 193.972916,208.032120 193.947723,207.711777 
	C192.258881,203.853241 190.224976,200.718445 185.925842,200.051575 
	C185.925842,200.051575 185.991486,200.000900 185.949814,199.692841 
	C184.922745,198.596848 183.937363,197.808929 182.951965,197.021011 
	C182.667847,196.852295 182.383713,196.683594 182.144272,196.229660 
	C182.188950,195.944443 182.375214,195.766342 182.480881,195.674683 
	C182.599091,195.272293 182.435989,195.082520 181.798752,194.875580 
	C180.191132,194.074570 178.727753,191.697250 177.401947,195.166351 
	C176.682281,196.797394 176.064362,198.331329 176.048767,199.871384 
	C175.956039,209.026947 176.002518,218.183929 176.002472,227.340424 
	C176.002365,242.539291 176.005066,242.429901 160.717560,242.063110 
	C156.877609,241.970978 155.859863,240.401337 155.948242,236.899368 
	C156.116211,230.244354 155.996399,223.582062 155.996368,216.922791 
	C155.996277,198.030228 155.996338,179.137650 155.996338,160.011185 
	C162.754425,160.011185 169.239120,159.864288 175.707596,160.122971 
	C177.173477,160.181610 178.636292,161.568481 180.008224,162.482483 
	C183.705002,164.945389 187.351959,167.483078 191.018692,169.991074 
	C191.018692,169.991074 190.999390,170.000610 191.015579,170.363190 
	C193.664032,173.157150 196.296310,175.588531 198.928574,178.019928 
	C211.223709,190.258881 223.533768,202.482895 235.807404,214.743362 
	C241.546402,220.476212 247.214966,226.279572 253.024323,232.723083 
	C254.161469,234.201279 255.189743,235.007324 256.218018,235.813385 
	C256.218018,235.813385 256.034729,235.938980 256.104340,236.213104 
	C256.872192,236.948761 257.570465,237.410324 258.268707,237.871872 
z"/>
<path fill="#2B2B2B" opacity="1.000000" stroke="none" 
	d="
M99.770706,329.999878 
	C96.991951,330.001862 94.672203,330.001862 91.847244,330.001862 
	C91.847244,316.402222 91.847244,303.024292 91.847244,289.646393 
	C91.439537,289.547638 91.031830,289.448883 90.624123,289.350159 
	C90.119514,290.852448 89.535065,292.333191 89.123177,293.860504 
	C86.325104,304.235779 83.440239,314.590271 80.851868,325.018127 
	C79.845825,329.071228 78.150284,331.218414 73.360703,329.558289 
	C69.642181,316.030121 65.859642,302.269012 62.077095,288.507935 
	C61.760143,288.555145 61.443195,288.602356 61.126244,288.649597 
	C61.126244,302.268463 61.126244,315.887360 61.126244,329.753052 
	C57.956734,329.753052 55.219254,329.753052 52.208221,329.753052 
	C52.208221,312.943665 52.208221,296.223419 52.208221,279.250000 
	C57.367878,279.250000 62.458542,279.250000 67.642723,279.250000 
	C70.758934,289.472168 73.870514,299.679138 77.315712,310.980469 
	C80.422951,300.594299 83.077263,291.400330 86.004959,282.294281 
	C86.427933,280.978729 88.088730,279.257111 89.306129,279.146423 
	C93.559540,278.759552 97.869698,278.996613 102.636078,278.996613 
	C102.636078,291.048615 102.636047,302.662567 102.636086,314.276550 
	C102.636101,318.438843 102.803932,322.612366 102.526138,326.756042 
	C102.450600,327.882904 101.031944,328.919739 99.770706,329.999878 
z"/>
<path fill="#373737" opacity="1.000000" stroke="none" 
	d="
M304.582123,204.587311 
	C302.075378,207.487579 299.822418,210.140854 297.587219,212.773224 
	C291.011597,206.122391 285.316101,200.361755 279.262054,194.238449 
	C290.785309,182.594452 302.432129,170.800964 314.137787,159.066162 
	C314.757904,158.444504 315.873566,158.014709 316.761871,158.008942 
	C327.684021,157.937881 338.606812,157.962631 350.748535,157.962631 
	C334.904358,173.967285 319.870117,189.153809 304.582123,204.587311 
z"/>
<path fill="#2A2A2A" opacity="1.000000" stroke="none" 
	d="
M255.712662,311.104065 
	C250.612152,309.596710 245.818207,308.369659 241.067795,306.992340 
	C232.783813,304.590607 229.518082,300.115906 229.797348,291.756897 
	C230.012192,285.326324 234.651428,280.483276 242.152740,278.858643 
	C253.810989,276.333710 263.146057,280.272095 266.877899,289.601898 
	C264.342407,290.145172 261.871704,290.840118 259.354126,291.134552 
	C258.309753,291.256744 256.736847,290.866272 256.138550,290.120148 
	C253.137344,286.377319 249.039673,286.569000 245.170242,287.286621 
	C243.503250,287.595764 241.091873,289.809326 241.014374,291.264038 
	C240.918823,293.057953 242.474426,295.887939 244.076553,296.630646 
	C247.625031,298.275696 251.635498,298.947052 255.480667,299.924652 
	C264.917908,302.323975 269.171265,306.881683 269.010834,314.519501 
	C268.841278,322.591187 263.555389,328.710846 254.301758,329.957703 
	C249.215210,330.643036 243.771057,330.152191 238.704239,329.125305 
	C232.610596,327.890320 228.779663,323.539795 226.974152,317.274078 
	C230.233887,316.330963 233.386703,315.418762 236.986511,314.377228 
	C239.351471,321.226837 244.682785,322.604034 250.920288,321.952850 
	C256.938599,321.324524 259.115875,316.684662 255.712662,311.104065 
z"/>
<path fill="#4976C6" opacity="1.000000" stroke="none" 
	d="
M398.369232,310.195251 
	C400.055176,303.926178 401.579285,298.021545 403.089783,292.169525 
	C406.201843,292.169525 408.835510,292.169525 411.886505,292.169525 
	C408.198242,304.860840 404.591034,317.273224 400.946960,329.812561 
	C397.949738,329.812561 395.160645,329.812561 392.048737,329.812561 
	C390.227325,322.237579 388.422394,314.731140 386.617462,307.224670 
	C386.208893,307.193848 385.800293,307.163055 385.391693,307.132233 
	C383.642670,314.565338 381.893646,321.998474 380.081268,329.700806 
	C377.056244,329.700806 374.145569,329.700806 370.868103,329.700806 
	C367.106018,317.427094 363.320007,305.075348 359.404907,292.302460 
	C363.112213,292.302460 366.341614,292.302460 369.940460,292.302460 
	C371.897552,299.522705 373.881714,306.842957 375.865875,314.163177 
	C376.142975,314.167633 376.420074,314.172119 376.697174,314.176575 
	C377.790375,309.506287 378.953888,304.851074 379.961365,300.162384 
	C381.770020,291.744720 381.730865,291.736298 391.121277,292.223297 
	C392.830536,299.205200 394.590393,306.393768 396.675934,314.912567 
	C397.449402,312.714081 397.828400,311.636902 398.369232,310.195251 
z"/>
<path fill="#2D2D2D" opacity="1.000000" stroke="none" 
	d="
M204.641403,314.013733 
	C204.641373,319.474487 204.641373,324.439606 204.641373,329.705414 
	C201.214294,329.705414 198.133240,329.705414 194.358810,329.705414 
	C194.358810,322.384003 194.452438,314.968140 194.317276,307.556488 
	C194.254608,304.120026 195.468384,299.716370 189.985748,299.059723 
	C185.757370,298.553314 182.522476,301.889404 182.294785,307.551880 
	C182.001480,314.846130 182.223389,322.161041 182.223389,329.742249 
	C178.868652,329.742249 175.781738,329.742249 172.336823,329.742249 
	C172.336823,313.042267 172.336823,296.204834 172.336823,279.176941 
	C175.560562,279.176941 178.665131,279.176941 182.335236,279.176941 
	C182.335236,284.309448 182.335236,289.350433 182.335236,293.147736 
	C187.284973,292.612915 191.807495,291.526154 196.244095,291.805237 
	C201.144333,292.113434 203.727737,295.747711 204.109421,300.585175 
	C204.448532,304.883392 204.476257,309.206177 204.641403,314.013733 
z"/>
<path fill="#2A2A2A" opacity="1.000000" stroke="none" 
	d="
M426.821838,330.985046 
	C422.833344,329.522888 418.392639,328.931122 415.855682,326.417786 
	C408.933563,319.560089 413.513428,309.487518 424.312500,307.139587 
	C427.381134,306.472412 430.593384,306.488373 433.693146,305.931488 
	C435.101349,305.678528 436.396027,304.793304 437.742218,304.194885 
	C436.586792,302.553345 435.785736,300.150970 434.208008,299.416077 
	C429.865509,297.393372 425.224121,299.324066 422.296509,303.733856 
	C419.605377,303.388245 416.867279,303.036591 414.137360,302.685974 
	C415.155457,293.118439 425.552094,290.133209 434.931976,291.202637 
	C443.354950,292.162994 447.789429,295.084991 447.271881,305.108887 
	C446.854034,313.202118 447.187225,321.334137 447.187225,329.732361 
	C445.203217,329.732361 442.433258,329.732361 439.233582,329.732361 
	C438.741394,328.145538 438.174408,326.317596 437.948639,325.589722 
	C434.539368,327.305115 430.888702,329.141998 426.821838,330.985046 
M423.484344,316.226685 
	C422.313782,320.376129 423.957611,322.635193 428.173218,322.988129 
	C434.070557,323.481903 437.273407,319.901672 437.694885,312.227814 
	C432.718781,311.847137 427.818237,311.477692 423.484344,316.226685 
z"/>
<path fill="#292929" opacity="1.000000" stroke="none" 
	d="
M507.921509,312.007172 
	C501.453064,312.007111 495.473511,312.007111 489.528046,312.007111 
	C488.859039,317.704681 490.656677,321.495728 494.472229,322.760254 
	C498.693054,324.159088 501.333435,322.545593 504.851562,316.300568 
	C507.649933,316.940094 510.504547,317.592529 513.376343,318.248840 
	C510.857880,326.715240 503.576172,331.742981 495.236816,330.990845 
	C486.829895,330.232605 479.916199,324.073639 479.064606,315.956116 
	C478.653961,312.041840 478.571503,307.848877 479.527710,304.083618 
	C481.917603,294.673157 490.945831,289.405426 500.267670,291.326324 
	C510.105103,293.353485 514.946899,300.601410 513.753418,312.007233 
	C512.005249,312.007233 510.207825,312.007233 507.921509,312.007172 
M501.926514,306.002594 
	C502.388763,305.058380 503.474976,303.857208 503.209534,303.212708 
	C501.757538,299.687073 498.803864,298.479034 495.170807,299.045074 
	C491.477203,299.620575 489.552155,301.939362 489.010895,306.003845 
	C493.192230,306.003845 497.116638,306.003845 501.926514,306.002594 
z"/>
<path fill="#2A2A2A" opacity="1.000000" stroke="none" 
	d="
M276.513031,297.585541 
	C282.492432,291.218018 290.078461,289.411194 297.559692,292.348633 
	C303.961090,294.862091 308.063141,301.470154 308.189178,309.471832 
	C308.372223,321.090759 303.664978,327.984650 293.900269,330.398346 
	C286.217865,332.297302 279.015442,329.387268 275.374115,322.326355 
	C271.142670,314.121155 270.822021,305.828796 276.513031,297.585541 
M283.011536,313.184265 
	C283.242584,314.480255 283.322845,315.826355 283.733795,317.062531 
	C284.838470,320.385529 286.476837,323.135468 290.651276,323.017426 
	C294.801971,322.900085 296.777893,320.299774 297.043549,316.715576 
	C297.368317,312.333771 297.517700,307.773834 296.594727,303.541321 
	C296.193939,301.703339 292.930573,299.307312 290.963379,299.303619 
	C288.695404,299.299377 285.450165,301.138763 284.394409,303.118744 
	C283.020294,305.695770 283.382996,309.198883 283.011536,313.184265 
z"/>
<path fill="#282828" opacity="1.000000" stroke="none" 
	d="
M140.936981,292.819519 
	C141.022034,294.538544 141.022034,295.841705 141.022034,295.990234 
	C144.454071,294.383545 147.967850,291.609161 151.727676,291.221527 
	C158.820755,290.490295 163.826462,296.087708 163.966064,303.826477 
	C164.118988,312.304382 164.000885,320.787201 164.000885,329.634705 
	C160.871674,329.634705 157.802307,329.634705 153.953690,329.634705 
	C153.953690,322.691895 153.998123,315.455750 153.935837,308.220520 
	C153.902298,304.323395 154.822815,299.664856 148.964813,299.063965 
	C144.842422,298.641144 142.024887,302.687866 141.997864,308.659180 
	C141.966415,315.611481 141.990524,322.564026 141.990524,329.755981 
	C138.550110,329.755981 135.473709,329.755981 131.809662,329.755981 
	C131.809662,323.450287 131.809662,317.194794 131.809662,310.939331 
	C131.809662,304.812042 131.809662,298.684753 131.809662,291.940765 
	C135.039780,292.106110 137.945862,292.254883 140.936981,292.819519 
z"/>
<path fill="#2C2C2C" opacity="1.000000" stroke="none" 
	d="
M325.388702,288.304688 
	C325.101349,295.386749 330.499786,290.138397 332.854950,292.878998 
	C332.854950,294.674255 332.854950,297.205688 332.854950,300.091736 
	C330.341431,300.091736 327.880859,300.091736 325.099182,300.091736 
	C325.099182,310.194031 325.099182,319.959564 325.099182,329.857971 
	C321.816498,329.857971 318.857788,329.857971 315.447327,329.857971 
	C315.447327,319.976471 315.447327,310.236877 315.447327,300.198242 
	C313.448242,300.061737 311.874451,299.954285 310.128845,299.835083 
	C310.128845,297.285217 310.128845,295.005249 310.128845,292.366791 
	C311.595612,292.172729 313.165619,291.965027 313.882843,291.870117 
	C315.892700,287.702606 316.793640,282.786774 319.731781,280.564911 
	C322.925812,278.149597 328.013245,278.238190 332.855652,277.098389 
	C332.855652,280.545441 332.855652,282.936768 332.855652,285.110077 
	C330.429169,286.014679 327.977570,286.928650 325.388702,288.304688 
z"/>
<path fill="#2C2C2C" opacity="1.000000" stroke="none" 
	d="
M357.631989,294.242462 
	C357.637512,296.301697 357.637512,297.923462 357.637512,299.767700 
	C354.950378,299.929840 352.701172,300.065521 350.093689,300.222839 
	C350.093689,306.370422 349.977417,312.324219 350.128998,318.271179 
	C350.259766,323.402100 353.918640,323.288330 357.914856,322.761627 
	C357.914856,325.120850 357.914856,327.355469 357.914856,329.680145 
	C356.354065,330.064392 354.773071,330.568756 353.152924,330.832062 
	C346.821625,331.861084 341.282196,328.151825 340.811554,321.778381 
	C340.299255,314.840668 340.695221,307.835876 340.695221,300.582886 
	C338.937347,300.250946 337.552704,299.989502 335.977936,299.692139 
	C335.977936,297.268951 335.977936,294.809753 335.977936,292.198578 
	C337.546234,292.067871 339.002991,291.946411 340.653290,291.808868 
	C340.970337,289.017487 341.284546,286.251129 341.621643,283.283447 
	C344.307526,282.648560 346.864288,282.044220 349.952393,281.314270 
	C349.952393,284.869080 349.952393,288.232819 349.952393,290.890961 
	C352.958069,292.032288 355.292267,292.918640 357.631989,294.242462 
z"/>
<path fill="#4573C4" opacity="1.000000" stroke="none" 
	d="
M112.002716,283.176208 
	C111.615555,280.008820 112.490761,278.662384 115.485466,278.961395 
	C117.760406,279.188538 120.076210,279.006470 122.685417,279.006470 
	C122.685417,296.071716 122.685417,312.764923 122.685417,329.730896 
	C119.306084,329.730896 116.040596,329.730896 112.002167,329.730896 
	C112.002167,314.432800 112.002167,299.044250 112.002716,283.176208 
z"/>
<path fill="#2A2A2A" opacity="1.000000" stroke="none" 
	d="
M466.053711,320.006256 
	C466.053711,323.469025 466.053711,326.442902 466.053711,329.706299 
	C462.720612,329.706299 459.642578,329.706299 456.243347,329.706299 
	C456.243347,317.380310 456.243347,304.985199 456.243347,292.292114 
	C458.953949,292.292114 461.706238,292.292114 464.806274,292.292114 
	C464.937927,293.489471 465.085999,294.836090 465.152466,295.440857 
	C468.629272,293.666962 472.087982,291.902252 476.394531,289.704987 
	C476.394531,294.423828 476.394531,297.522247 476.394531,300.603943 
	C468.270691,301.931152 466.074127,304.597198 466.054626,313.022095 
	C466.049622,315.187164 466.053772,317.352264 466.053711,320.006256 
z"/>
<path fill="#2A2A2A" opacity="1.000000" stroke="none" 
	d="
M190.906509,169.677094 
	C187.351959,167.483078 183.705002,164.945389 180.008224,162.482483 
	C178.636292,161.568481 177.173477,160.181610 175.707596,160.122971 
	C169.239120,159.864288 162.754425,160.011185 155.996338,160.011185 
	C155.996338,179.137650 155.996277,198.030228 155.996368,216.922791 
	C155.996399,223.582062 156.116211,230.244354 155.948242,236.899368 
	C155.859863,240.401337 156.877609,241.970978 160.717560,242.063110 
	C176.005066,242.429901 176.002365,242.539291 176.002472,227.340424 
	C176.002518,218.183929 175.956039,209.026947 176.048767,199.871384 
	C176.064362,198.331329 176.682281,196.797394 177.436981,195.627304 
	C177.862061,211.767227 177.872070,227.540451 177.882065,243.313690 
	C169.975311,243.313690 162.068573,243.313690 153.946426,243.313690 
	C153.946426,214.938889 153.946426,186.618164 153.946426,157.986847 
	C161.943130,157.986847 169.724884,157.881393 177.498718,158.082397 
	C178.926727,158.119339 180.576523,159.126938 181.685028,160.158264 
	C184.842773,163.096130 187.773987,166.277527 190.906509,169.677094 
z"/>
<path fill="#4D4D4D" opacity="1.000000" stroke="none" 
	d="
M178.211151,243.298431 
	C177.872070,227.540451 177.862061,211.767227 177.817032,195.533020 
	C178.727753,191.697250 180.191132,194.074570 181.840485,195.073822 
	C182.180725,195.410172 182.375214,195.766342 182.375214,195.766342 
	C182.375214,195.766342 182.188950,195.944443 182.067917,195.988617 
	C178.206116,194.731094 179.160934,197.644150 179.151505,199.330322 
	C179.076660,212.718887 179.105103,226.108032 179.054459,239.496796 
	C179.049683,240.759552 178.719391,242.021072 178.211151,243.298431 
z"/>
<path fill="#4D4D4D" opacity="1.000000" stroke="none" 
	d="
M226.803024,241.687790 
	C235.995438,241.587631 245.323044,241.948227 254.651428,241.970001 
	C256.114075,241.973419 257.580292,240.438232 259.084229,239.176758 
	C260.678802,240.073135 262.234009,241.407242 263.789185,242.741364 
	C263.651276,243.117294 263.513367,243.493225 263.375427,243.869156 
	C253.015472,243.869156 242.654114,243.955658 232.296906,243.786819 
	C230.501724,243.757553 228.724167,242.647720 226.803024,241.687790 
z"/>
<path fill="#4C7FC6" opacity="1.000000" stroke="none" 
	d="
M275.967590,241.485031 
	C285.007690,241.435791 294.184296,241.714920 303.358704,242.053268 
	C307.102966,242.191360 310.842468,242.457794 314.853455,243.010941 
	C303.200500,243.524628 291.278381,243.746521 279.355835,243.771759 
	C278.273010,243.774048 277.187500,242.512085 275.967590,241.485031 
z"/>
<path fill="#1F62B9" opacity="1.000000" stroke="none" 
	d="
M224.560181,158.141510 
	C225.994736,158.657928 226.963989,159.098923 227.933228,159.539902 
	C227.923553,159.776611 227.913895,160.013321 227.904221,160.250031 
	C217.683640,160.250031 207.463058,160.250031 196.721878,160.373810 
	C196.201279,160.497574 196.150345,160.460403 196.416245,160.191833 
	C197.449890,159.352478 198.217651,158.781723 198.985413,158.210968 
	C207.355225,158.162674 215.725037,158.114380 224.560181,158.141510 
z"/>
<path fill="#4D4D4D" opacity="1.000000" stroke="none" 
	d="
M193.960205,208.431046 
	C198.517609,212.567444 203.182510,217.021271 207.834808,221.842606 
	C203.237366,217.722900 198.652542,213.235687 193.960205,208.431046 
z"/>
<path fill="#2A2A2A" opacity="1.000000" stroke="none" 
	d="
M198.818542,177.709259 
	C196.296310,175.588531 193.664032,173.157150 191.020340,170.353516 
	C193.575439,172.453720 196.141968,174.926163 198.818542,177.709259 
z"/>
<path fill="#4D4D4D" opacity="1.000000" stroke="none" 
	d="
M186.033386,200.367645 
	C190.224976,200.718445 192.258881,203.853241 193.903778,207.769547 
	C191.303635,205.659683 188.722275,203.171707 186.033386,200.367645 
z"/>
<path fill="#4D4D4D" opacity="1.000000" stroke="none" 
	d="
M218.873932,233.519058 
	C220.782181,234.991547 222.787704,236.787292 224.735458,238.953003 
	C222.775528,237.496078 220.873367,235.669189 218.873932,233.519058 
z"/>
<path fill="#4D4D4D" opacity="1.000000" stroke="none" 
	d="
M210.915985,225.471909 
	C212.487366,226.604065 214.164749,228.046661 215.821320,229.857513 
	C214.207672,228.744644 212.614822,227.263504 210.915985,225.471909 
z"/>
<path fill="#3971BF" opacity="1.000000" stroke="none" 
	d="
M198.619202,158.105896 
	C198.217651,158.781723 197.449890,159.352478 196.401917,160.163742 
	C195.509537,159.930298 194.897385,159.456345 193.353897,158.261337 
	C195.666763,158.138351 196.959869,158.069595 198.619202,158.105896 
z"/>
<path fill="#4D4D4D" opacity="1.000000" stroke="none" 
	d="
M215.857971,230.502106 
	C216.809158,230.943802 217.843567,231.692017 218.841431,232.832153 
	C217.850311,232.418945 216.895752,231.613770 215.857971,230.502106 
z"/>
<path fill="#4D4D4D" opacity="1.000000" stroke="none" 
	d="
M183.037109,197.326721 
	C183.937363,197.808929 184.922745,198.596848 185.929398,199.728912 
	C185.007858,199.259491 184.065048,198.445953 183.037109,197.326721 
z"/>
<path fill="#4D4D4D" opacity="1.000000" stroke="none" 
	d="
M256.132904,235.500534 
	C255.189743,235.007324 254.161469,234.201279 253.150009,233.022980 
	C254.127151,233.496384 255.087463,234.342041 256.132904,235.500534 
z"/>
<path fill="#4D4D4D" opacity="1.000000" stroke="none" 
	d="
M207.886963,222.481430 
	C208.808533,222.943069 209.826141,223.707031 210.844620,224.830536 
	C209.891342,224.387985 208.937164,223.585861 207.886963,222.481430 
z"/>
<path fill="#4C7FC6" opacity="1.000000" stroke="none" 
	d="
M273.603455,239.103897 
	C274.299530,239.396454 275.094269,239.957794 275.875031,240.844772 
	C275.141388,240.571167 274.421753,239.971924 273.603455,239.103897 
z"/>
<path fill="#4D4D4D" opacity="1.000000" stroke="none" 
	d="
M258.177032,237.574890 
	C257.570465,237.410324 256.872192,236.948761 256.181793,236.133453 
	C256.821533,236.279099 257.453461,236.778503 258.177032,237.574890 
z"/>
<path fill="#4D4D4D" opacity="1.000000" stroke="none" 
	d="
M224.767456,239.606384 
	C225.377136,239.753098 226.075470,240.182022 226.718201,240.971741 
	C226.060425,240.851227 225.458282,240.369888 224.767456,239.606384 
z"/>
<path fill="#4C7FC6" opacity="1.000000" stroke="none" 
	d="
M317.254150,241.848282 
	C317.403564,241.303101 317.834656,240.677612 318.571594,240.003815 
	C318.430237,240.559647 317.983032,241.163818 317.254150,241.848282 
z"/>
<path fill="#4C7FC6" opacity="1.000000" stroke="none" 
	d="
M265.735107,231.153992 
	C266.064514,231.182526 266.449127,231.443817 266.883301,231.944214 
	C266.552002,231.917801 266.171173,231.652267 265.735107,231.153992 
z"/>
<path fill="#4C7FC6" opacity="1.000000" stroke="none" 
	d="
M262.791016,228.155060 
	C263.122162,228.180023 263.482880,228.440491 263.895386,228.926880 
	C263.571655,228.898743 263.196075,228.644669 262.791016,228.155060 
z"/>
<path fill="#4C7FC6" opacity="1.000000" stroke="none" 
	d="
M259.987610,225.249283 
	C260.282532,225.284698 260.618500,225.552307 261.019409,226.032196 
	C260.732452,225.990143 260.380585,225.735809 259.987610,225.249283 
z"/>
<path fill="#4C7FC6" opacity="1.000000" stroke="none" 
	d="
M241.106750,206.191559 
	C241.366211,206.194412 241.650803,206.409882 242.004913,206.793686 
	C241.760254,206.776077 241.446075,206.590118 241.106750,206.191559 
z"/>
<path fill="#4C7FC6" opacity="1.000000" stroke="none" 
	d="
M244.118927,209.186508 
	C244.373917,209.210861 244.665039,209.451141 245.021301,209.872681 
	C244.776001,209.836792 244.465530,209.619614 244.118927,209.186508 
z"/>
<path fill="#4C7FC6" opacity="1.000000" stroke="none" 
	d="
M243.165619,208.205261 
	C243.415573,208.058075 243.661148,208.234863 243.936554,208.711456 
	C243.679321,208.899872 243.410934,208.739197 243.165619,208.205261 
z"/>
<path fill="#4C7FC6" opacity="1.000000" stroke="none" 
	d="
M248.098282,213.230225 
	C248.356720,213.065460 248.623215,213.243256 248.911469,213.754425 
	C248.656540,213.925461 248.380905,213.753784 248.098282,213.230225 
z"/>
<path fill="#4C7FC6" opacity="1.000000" stroke="none" 
	d="
M250.889557,216.248230 
	C250.922119,216.314865 250.901627,216.213272 250.911835,216.182236 
	C250.922028,216.151199 250.856979,216.181580 250.889557,216.248230 
z"/>
<path fill="#4C7FC6" opacity="1.000000" stroke="none" 
	d="
M251.852188,217.138214 
	C251.917206,217.154846 251.870407,217.149887 251.868439,217.122543 
	C251.866470,217.095200 251.787170,217.121582 251.852188,217.138214 
z"/>
<path fill="#4C7FC6" opacity="1.000000" stroke="none" 
	d="
M252.820633,218.122437 
	C252.897736,218.125793 252.785202,218.160141 252.776642,218.129440 
	C252.768066,218.098740 252.743530,218.119080 252.820633,218.122437 
z"/>
<path fill="#4C7FC6" opacity="1.000000" stroke="none" 
	d="
M254.890442,220.196304 
	C254.937302,220.253494 254.850174,220.181885 254.845978,220.152451 
	C254.841766,220.123016 254.843597,220.139114 254.890442,220.196304 
z"/>
<path fill="#4C7FC6" opacity="1.000000" stroke="none" 
	d="
M256.019775,221.269974 
	C256.215607,221.205948 256.504120,221.385635 256.887451,221.808533 
	C256.692352,221.872375 256.402435,221.693024 256.019775,221.269974 
z"/>
<path fill="#4C7FC6" opacity="1.000000" stroke="none" 
	d="
M267.944275,233.317993 
	C268.162689,233.250244 268.465576,233.446732 268.851624,233.909088 
	C268.632751,233.977371 268.330750,233.779800 267.944275,233.317993 
z"/>
<path fill="#4C7FC6" opacity="1.000000" stroke="none" 
	d="
M272.665680,238.216705 
	C272.725372,238.100601 272.954651,238.320435 272.999664,238.386688 
	C273.044678,238.452957 272.790649,238.518158 272.790649,238.518158 
	C272.790649,238.518158 272.605988,238.332809 272.665680,238.216705 
z"/>
<path fill="#2A2A2A" opacity="1.000000" stroke="none" 
	d="
M182.480881,195.674683 
	C182.375214,195.766342 182.180725,195.410172 182.139008,195.211945 
	C182.435989,195.082520 182.599091,195.272293 182.480881,195.674683 
z"/>
<path fill="#F6F6F6" opacity="1.000000" stroke="none" 
	d="
M423.702026,315.901245 
	C427.818237,311.477692 432.718781,311.847137 437.694885,312.227814 
	C437.273407,319.901672 434.070557,323.481903 428.173218,322.988129 
	C423.957611,322.635193 422.313782,320.376129 423.702026,315.901245 
z"/>
<path fill="#F8F8F8" opacity="1.000000" stroke="none" 
	d="
M501.483765,306.003235 
	C497.116638,306.003845 493.192230,306.003845 489.010895,306.003845 
	C489.552155,301.939362 491.477203,299.620575 495.170807,299.045074 
	C498.803864,298.479034 501.757538,299.687073 503.209534,303.212708 
	C503.474976,303.857208 502.388763,305.058380 501.483765,306.003235 
z"/>
<path fill="#FAFAFA" opacity="1.000000" stroke="none" 
	d="
M283.004883,312.743866 
	C283.382996,309.198883 283.020294,305.695770 284.394409,303.118744 
	C285.450165,301.138763 288.695404,299.299377 290.963379,299.303619 
	C292.930573,299.307312 296.193939,301.703339 296.594727,303.541321 
	C297.517700,307.773834 297.368317,312.333771 297.043549,316.715576 
	C296.777893,320.299774 294.801971,322.900085 290.651276,323.017426 
	C286.476837,323.135468 284.838470,320.385529 283.733795,317.062531 
	C283.322845,315.826355 283.242584,314.480255 283.004883,312.743866 
z"/>
</svg>